<?xml version="1.0" standalone="no"?>
<!DOCTYPE svg PUBLIC "-//W3C//DTD SVG 20010904//EN"
 "http://www.w3.org/TR/2001/REC-SVG-20010904/DTD/svg10.dtd">
<svg version="1.0" xmlns="http://www.w3.org/2000/svg"
 width="512.000000pt" height="512.000000pt" viewBox="0 0 512.000000 512.000000"
 preserveAspectRatio="xMidYMid meet">
<metadata>
Created by potrace 1.11, written by Peter Selinger 2001-2013
</metadata>
<g transform="translate(0.000000,512.000000) scale(0.100000,-0.100000)"
fill="#000000" stroke="none">
<path d="M1172 4985 c-235 -51 -425 -261 -491 -542 -13 -51 -13 -52 -68 -69
-157 -49 -305 -211 -342 -374 -15 -66 -13 -187 4 -255 37 -140 144 -266 283
-331 l82 -39 0 -1100 0 -1100 -45 -24 c-60 -32 -130 -109 -163 -179 -23 -49
-27 -70 -27 -152 0 -82 4 -103 27 -152 37 -79 108 -152 184 -189 35 -17 66
-39 68 -48 7 -24 76 -337 76 -344 0 -4 681 -7 1514 -7 l1514 0 22 98 c12 53
31 136 42 183 l19 86 55 23 c78 32 156 107 196 188 30 61 33 74 33 162 0 87
-3 101 -32 161 -39 79 -111 150 -189 186 l-55 25 3 116 3 117 319 71 c175 40
338 80 361 89 63 23 130 87 162 153 l28 57 0 665 c0 658 0 665 -21 711 -31 67
-87 124 -152 156 l-57 28 -290 3 -290 4 73 19 c185 47 313 169 366 348 23 79
21 232 -4 312 -46 151 -176 286 -320 334 -47 16 -48 17 -71 87 -58 182 -225
348 -411 409 -63 21 -92 24 -213 24 -139 0 -141 -1 -232 -38 l-92 -38 -39 26
c-93 61 -257 90 -375 66 -87 -19 -191 -75 -259 -142 l-59 -58 -67 15 c-84 20
-224 13 -303 -14 l-57 -20 -52 64 c-153 192 -413 282 -658 229z m283 -250
c102 -35 174 -99 245 -216 14 -22 44 -52 67 -66 55 -32 121 -28 213 13 80 35
176 39 260 9 68 -23 135 -24 178 -1 17 9 54 45 81 79 57 73 121 112 198 123
66 8 141 -10 191 -46 101 -73 168 -81 262 -31 156 81 313 81 442 -1 95 -60
156 -153 185 -280 22 -100 54 -133 153 -159 89 -24 140 -55 180 -111 40 -55
53 -108 48 -193 -7 -99 -50 -174 -123 -212 -81 -43 -84 -43 -1162 -43 -939 0
-1033 1 -1033 16 0 26 -31 70 -60 88 -56 32 -130 12 -164 -44 -14 -25 -16 -96
-16 -707 0 -749 2 -719 -63 -767 -39 -29 -115 -29 -154 0 -65 48 -63 18 -63
767 0 744 2 720 -60 752 -38 20 -85 19 -120 -1 -30 -18 -60 -62 -60 -89 0 -15
-16 -17 -182 -13 -161 3 -189 6 -229 25 -160 73 -217 266 -121 408 41 59 103
102 169 116 32 7 62 19 66 26 4 7 16 13 26 13 32 0 79 53 86 96 34 198 113
346 225 420 81 54 225 66 335 29z m-373 -1952 l3 -578 31 -65 c39 -83 101
-145 184 -184 60 -28 73 -31 165 -31 89 1 106 4 160 30 74 36 144 106 182 182
l28 58 3 583 3 582 899 0 900 0 0 -138 0 -138 -45 -44 -45 -44 -43 42 c-23 23
-49 42 -57 42 -8 0 8 -23 35 -50 l50 -50 -63 -62 -62 -62 -45 44 c-36 35 -45
40 -45 25 0 -11 16 -35 35 -55 l35 -36 -35 -34 c-19 -19 -35 -43 -35 -54 0
-17 8 -12 45 24 l45 44 60 -59 60 -60 -60 -60 -60 -59 -45 44 c-36 35 -45 40
-45 25 0 -11 16 -35 35 -55 l35 -36 -35 -34 c-19 -19 -35 -43 -35 -54 0 -17 8
-12 45 24 l45 44 62 -62 63 -62 -60 -60 -59 -60 -48 47 c-38 37 -48 43 -48 28
0 -11 17 -36 37 -57 l37 -38 -37 -38 c-53 -55 -46 -75 8 -22 l45 44 62 -62 63
-62 -60 -60 -59 -60 -48 47 c-38 37 -48 43 -48 28 0 -11 17 -36 37 -57 l37
-38 -37 -38 c-20 -21 -37 -46 -37 -57 0 -15 10 -9 48 28 l48 47 59 -60 60 -60
-63 -62 -62 -62 -45 44 c-36 35 -45 40 -45 25 0 -11 16 -35 35 -55 l35 -36
-35 -34 c-19 -19 -35 -43 -35 -54 0 -17 8 -12 45 24 l45 44 60 -59 60 -60 -60
-60 -60 -59 -45 44 c-36 35 -45 40 -45 25 0 -11 16 -35 35 -55 l35 -36 -35
-34 c-19 -19 -35 -43 -35 -54 0 -17 8 -12 45 24 l45 44 60 -59 60 -59 -42 -43
c-53 -54 -96 -58 -141 -15 l-30 27 5 -27 5 -28 -1223 0 -1224 0 0 1080 0 1080
100 0 99 0 3 -577z m3413 312 l25 -24 0 -609 c0 -571 -1 -611 -18 -632 -15
-18 -66 -33 -302 -86 -157 -36 -293 -67 -302 -70 -17 -5 -18 34 -18 720 l0
726 295 0 296 0 24 -25z m-855 -122 l0 -67 -35 34 -35 34 32 33 c18 18 33 33
35 33 2 0 3 -30 3 -67z m0 -133 c0 -29 -8 -44 -45 -80 l-45 -44 -60 59 -60 59
62 63 62 63 43 -42 c35 -34 43 -49 43 -78z m0 -147 l0 -67 -35 34 -35 34 32
33 c18 18 33 33 35 33 2 0 3 -30 3 -67z m-42 -66 c58 -59 58 -95 0 -154 l-42
-43 -63 62 -63 62 57 58 c32 32 60 58 63 58 3 0 25 -19 48 -43z m42 -214 l0
-67 -35 34 -35 34 32 33 c18 18 33 33 35 33 2 0 3 -30 3 -67z m-42 -66 c58
-59 58 -95 0 -154 l-42 -43 -63 62 -63 62 57 58 c32 32 60 58 63 58 3 0 25
-19 48 -43z m42 -219 l0 -63 -32 32 -32 33 29 30 c16 16 30 30 32 30 2 0 3
-28 3 -62z m0 -138 c0 -29 -8 -44 -43 -78 l-43 -42 -59 60 -59 60 59 60 59 60
43 -42 c35 -34 43 -49 43 -78z m0 -142 l0 -63 -32 32 -32 33 29 30 c16 16 30
30 32 30 2 0 3 -28 3 -62z m0 -138 c0 -29 -8 -44 -45 -80 l-45 -44 -60 59 -60
59 62 63 62 63 43 -42 c35 -34 43 -49 43 -78z m0 -147 l0 -67 -35 34 -35 34
32 33 c18 18 33 33 35 33 2 0 3 -30 3 -67z m-42 -66 c57 -58 57 -88 -3 -147
l-45 -44 -60 59 -60 59 57 58 c32 32 60 58 63 58 3 0 25 -19 48 -43z m42 -214
l0 -67 -35 34 -35 34 32 33 c18 18 33 33 35 33 2 0 3 -30 3 -67z m-55 -53 l29
-30 -64 0 -64 0 29 30 c16 17 32 30 35 30 3 0 19 -13 35 -30z m-102 -292 l-6
-23 25 23 c38 35 67 28 123 -28 l49 -50 -59 -60 -59 -60 -38 37 c-31 30 -38
34 -38 18 0 -10 12 -31 27 -47 26 -27 26 -28 8 -48 -18 -20 -22 -20 -1399 -18
-1316 3 -1382 4 -1408 21 -89 61 -80 201 16 243 26 11 272 13 1398 14 l1366 0
-5 -22z m287 19 c0 -2 -17 -20 -38 -40 l-38 -37 -39 40 -39 40 77 0 c42 0 77
-1 77 -3z m80 -23 c33 -20 60 -63 60 -96 0 -15 -15 -38 -38 -61 l-38 -37 -59
60 -59 60 44 45 c24 25 48 45 53 45 5 0 21 -7 37 -16z m-55 -234 c-15 -17 -30
-20 -100 -20 -70 0 -85 3 -100 20 -18 20 -18 22 40 80 l60 60 59 -59 c59 -59
60 -60 41 -81z m93 40 c-7 -11 -17 -20 -22 -20 -5 0 -1 9 9 20 10 11 20 20 22
20 2 0 -2 -9 -9 -20z m-323 -50 c3 -5 -1 -10 -10 -10 -9 0 -13 5 -10 10 3 6 8
10 10 10 2 0 7 -4 10 -10z m-92 -312 l-63 -62 -45 44 c-35 35 -45 40 -45 25 0
-10 10 -29 22 -42 l21 -23 -1201 0 -1202 0 -6 28 c-3 15 -10 42 -14 60 l-8 32
1301 0 1302 0 -62 -62z m140 42 c-3 -11 -6 -20 -8 -20 -1 0 -10 9 -20 20 -18
20 -17 20 8 20 20 0 24 -4 20 -20z m-17 -74 c-6 -25 -10 -26 -73 -26 l-67 0
49 50 49 50 25 -24 c18 -18 22 -30 17 -50z"/>
<path d="M3336 3061 c-10 -11 -16 -27 -14 -36 2 -13 11 -8 37 19 31 32 32 36
15 36 -12 0 -29 -9 -38 -19z"/>
</g>
</svg>
